<svg width="7" height="4" viewBox="0 0 7 4" fill="none" xmlns="http://www.w3.org/2000/svg">
<path d="M1 1.75C0.861929 1.75 0.75 1.86193 0.75 2C0.75 2.13807 0.861929 2.25 1 2.25V1.75ZM6.17678 2.17678C6.27441 2.07915 6.27441 1.92085 6.17678 1.82322L4.58579 0.232233C4.48816 0.134602 4.32986 0.134602 4.23223 0.232233C4.1346 0.329864 4.1346 0.488155 4.23223 0.585786L5.64645 2L4.23223 3.41421C4.1346 3.51184 4.1346 3.67014 4.23223 3.76777C4.32986 3.8654 4.48816 3.8654 4.58579 3.76777L6.17678 2.17678ZM1 2.25H6V1.75H1V2.25Z" fill="black"/>
</svg>
