<svg width="14" height="14" viewBox="0 0 14 14" fill="none" xmlns="http://www.w3.org/2000/svg">
<path fill-rule="evenodd" clip-rule="evenodd" d="M1.89583 13.125C1.89583 13.125 0.875 13.125 0.875 12.1042C0.875 11.0833 1.89583 8.02083 7 8.02083C12.1042 8.02083 13.125 11.0833 13.125 12.1042C13.125 13.125 12.1042 13.125 12.1042 13.125H1.89583ZM7 7C7.81223 7 8.59119 6.67734 9.16552 6.10301C9.73985 5.52868 10.0625 4.74973 10.0625 3.9375C10.0625 3.12527 9.73985 2.34632 9.16552 1.77199C8.59119 1.19766 7.81223 0.875 7 0.875C6.18777 0.875 5.40882 1.19766 4.83449 1.77199C4.26016 2.34632 3.9375 3.12527 3.9375 3.9375C3.9375 4.74973 4.26016 5.52868 4.83449 6.10301C5.40882 6.67734 6.18777 7 7 7Z" fill="black"/>
</svg>
