<svg width="130" height="50" viewBox="0 0 130 50" fill="none" xmlns="http://www.w3.org/2000/svg">
<rect width="129.295" height="50" rx="8" fill="#121212"/>
<path d="M111.152 13.4178L106.513 27.9649H102.219L108.869 10H111.584L111.152 13.4178ZM115.001 27.9649L110.35 13.4178L109.869 10H112.62L119.295 27.9649H115.001ZM114.804 21.2774V24.3867H105.439V21.2774H114.804Z" fill="#D63838"/>
<path d="M100.219 10V27.9649H96.209V10H100.219Z" fill="#D63838"/>
<path d="M85.2408 27.9649H81.2925L81.3171 24.8556H85.2408C86.1374 24.8556 86.8942 24.6499 87.5111 24.2386C88.128 23.8191 88.5969 23.2022 88.9177 22.3879C89.2385 21.5653 89.3989 20.5659 89.3989 19.3896V18.5629C89.3989 17.6746 89.3084 16.8931 89.1274 16.2186C88.9465 15.5359 88.6791 14.9642 88.3254 14.5036C87.9717 14.0429 87.5316 13.6974 87.0052 13.4671C86.487 13.2368 85.8906 13.1216 85.2161 13.1216H81.2184V10H85.2161C86.4335 10 87.544 10.2056 88.5475 10.6169C89.5593 11.0282 90.4312 11.6163 91.1633 12.3813C91.9036 13.1463 92.4753 14.0511 92.8783 15.0958C93.2814 16.1405 93.4829 17.3044 93.4829 18.5876V19.3896C93.4829 20.6646 93.2814 21.8285 92.8783 22.8814C92.4753 23.9261 91.9036 24.8309 91.1633 25.5959C90.4312 26.3526 89.5634 26.9367 88.5599 27.348C87.5563 27.7592 86.45 27.9649 85.2408 27.9649ZM83.5751 10V27.9649H79.5527V10H83.5751Z" fill="#D63838"/>
<path d="M77.5784 24.8556V27.9649H68.0161V24.8556H77.5784ZM69.3856 10V27.9649H65.3633V10H69.3856ZM76.3446 17.2304V20.241H68.0161V17.2304H76.3446ZM77.5908 10V13.1216H68.0161V10H77.5908Z" fill="#D63838"/>
<path d="M45.1533 10H48.4847L52.8032 22.8444L57.1093 10H60.4407L54.1481 27.9649H51.446L45.1533 10ZM43.2285 10H46.6216L47.2509 23.3133V27.9649H43.2285V10ZM58.9725 10H62.3779V27.9649H58.3432V23.3133L58.9725 10Z" fill="#D63838"/>
<path d="M33.9241 21.7216H29.4082V18.5999H33.9241C34.5904 18.5999 35.1251 18.4889 35.5281 18.2668C35.9394 18.0447 36.2396 17.7404 36.4288 17.3538C36.6262 16.9589 36.7249 16.5147 36.7249 16.0212C36.7249 15.5112 36.6262 15.0382 36.4288 14.6023C36.2396 14.1581 35.9394 13.8003 35.5281 13.5288C35.1251 13.2574 34.5904 13.1216 33.9241 13.1216H30.8642V27.9649H26.8418V10H33.9241C35.3554 10 36.581 10.2591 37.601 10.7773C38.6292 11.2955 39.4147 12.0071 39.9576 12.9119C40.5088 13.8085 40.7843 14.8367 40.7843 15.9965C40.7843 17.1563 40.5088 18.164 39.9576 19.0195C39.4147 19.8749 38.6292 20.5412 37.601 21.0183C36.581 21.4872 35.3554 21.7216 33.9241 21.7216Z" fill="#FAFAFA"/>
<path d="M19.9448 10H23.9672V21.7956C23.9672 23.194 23.6711 24.3703 23.0788 25.3244C22.4948 26.2786 21.6805 26.9984 20.6358 27.4837C19.5911 27.969 18.382 28.2116 17.0083 28.2116C15.6264 28.2116 14.409 27.969 13.3561 27.4837C12.3114 26.9984 11.4888 26.2786 10.8884 25.3244C10.2961 24.3703 10 23.194 10 21.7956V10H14.0347V21.7956C14.0347 22.5688 14.1499 23.2022 14.3802 23.6958C14.6187 24.1811 14.9601 24.5389 15.4043 24.7692C15.8485 24.9913 16.3831 25.1023 17.0083 25.1023C17.6334 25.1023 18.164 24.9913 18.5999 24.7692C19.0441 24.5389 19.3773 24.1811 19.5994 23.6958C19.8297 23.2022 19.9448 22.5688 19.9448 21.7956V10Z" fill="#FAFAFA"/>
<path d="M118.758 33.5671H119.295V37.8644C119.295 38.3409 119.195 38.7375 118.994 39.0542C118.793 39.3709 118.522 39.6077 118.181 39.7646C117.844 39.9215 117.469 39.9999 117.059 39.9999C116.636 39.9999 116.256 39.9215 115.919 39.7646C115.581 39.6077 115.313 39.3709 115.115 39.0542C114.92 38.7375 114.822 38.3409 114.822 37.8644V33.5671H115.355V37.8644C115.355 38.2334 115.428 38.5428 115.574 38.7927C115.719 39.0426 115.92 39.23 116.176 39.3549C116.433 39.4799 116.727 39.5423 117.059 39.5423C117.388 39.5423 117.68 39.4799 117.937 39.3549C118.193 39.23 118.394 39.0426 118.539 38.7927C118.685 38.5428 118.758 38.2334 118.758 37.8644V33.5671Z" fill="#DFDFDF"/>
<path d="M107.363 33.5671H107.905L110.255 39.1544L112.609 33.5671H113.147L110.46 39.9128H110.05L107.363 33.5671ZM107.197 33.5671H107.673L107.73 37.1409V39.9128H107.197V33.5671ZM112.845 33.5671H113.321V39.9128H112.784V37.1409L112.845 33.5671Z" fill="#DFDFDF"/>
<path d="M105.592 33.5671V39.9128H105.051L101.395 34.4911V39.9128H100.857V33.5671H101.395L105.059 38.9888V33.5671H105.592Z" fill="#DFDFDF"/>
<path d="M97.3758 33.9463L95.1743 39.9128H94.6152L97.0177 33.5671H97.4064L97.3758 33.9463ZM99.3764 39.9128L97.1705 33.9463L97.14 33.5671H97.5287L99.9355 39.9128H99.3764ZM98.9833 37.6726V38.1346H95.6068V37.6726H98.9833Z" fill="#DFDFDF"/>
<path d="M93.769 36.8966V39.1542C93.6962 39.2617 93.571 39.3808 93.3933 39.5116C93.2157 39.6423 92.9769 39.7571 92.677 39.8559C92.377 39.9518 92.0043 39.9997 91.5588 39.9997C91.186 39.9997 90.8439 39.9329 90.5323 39.7992C90.2207 39.6656 89.9499 39.4724 89.7198 39.2196C89.4927 38.9639 89.3165 38.6574 89.1913 38.3C89.069 37.9426 89.0078 37.5416 89.0078 37.0971V36.33C89.0078 35.8942 89.0646 35.502 89.1782 35.1533C89.2917 34.8017 89.4563 34.501 89.6718 34.2512C89.8872 34.0013 90.1464 33.811 90.4493 33.6802C90.755 33.5466 91.0972 33.4797 91.4758 33.4797C91.9475 33.4797 92.345 33.5611 92.6682 33.7238C92.9915 33.8865 93.2434 34.1102 93.4239 34.395C93.6074 34.6768 93.7209 34.9964 93.7646 35.3538H93.2274C93.1866 35.101 93.1021 34.8686 92.974 34.6565C92.8459 34.4415 92.6595 34.2686 92.4149 34.1378C92.1732 34.0071 91.8602 33.9417 91.4758 33.9417C91.1671 33.9417 90.8919 33.9984 90.6502 34.1117C90.4114 34.225 90.2105 34.3863 90.0474 34.5955C89.8843 34.8047 89.7606 35.056 89.6761 35.3494C89.5917 35.64 89.5495 35.964 89.5495 36.3213V37.0971C89.5495 37.469 89.596 37.8046 89.6892 38.1039C89.7853 38.4031 89.9222 38.6603 90.0998 38.8753C90.2775 39.0903 90.49 39.2559 90.7376 39.3721C90.9851 39.4854 91.2603 39.5421 91.5631 39.5421C91.8864 39.5421 92.1616 39.5116 92.3887 39.4506C92.6158 39.3896 92.7978 39.3169 92.9347 39.2327C93.0745 39.1455 93.1749 39.0641 93.2361 38.9886V37.3542H91.5282V36.8966H93.769Z" fill="#DFDFDF"/>
<path d="M87.5787 33.5671V39.9128H87.0371L83.381 34.4911V39.9128H82.8438V33.5671H83.381L87.0458 38.9888V33.5671H87.5787Z" fill="#DFDFDF"/>
<path d="M79.3622 33.9463L77.1607 39.9128H76.6016L79.004 33.5671H79.3928L79.3622 33.9463ZM81.3628 39.9128L79.1569 33.9463L79.1263 33.5671H79.5151L81.9219 39.9128H81.3628ZM80.9696 37.6726V38.1346H77.5931V37.6726H80.9696Z" fill="#DFDFDF"/>
<path d="M74.4289 33.5671V39.9128H73.896V33.5671H74.4289ZM76.6086 33.5671V34.0291H71.7207V33.5671H76.6086Z" fill="#DFDFDF"/>
<path d="M68.7873 33.5671V39.9128H68.25V33.5671H68.7873Z" fill="#DFDFDF"/>
<path d="M64.0295 39.9128H62.588L62.5968 39.4552H64.0295C64.4867 39.4552 64.8798 39.3535 65.2089 39.1501C65.5409 38.9438 65.7971 38.6591 65.9777 38.2959C66.1582 37.9327 66.2485 37.5114 66.2485 37.032V36.4392C66.2485 36.0731 66.1961 35.7419 66.0912 35.4456C65.9893 35.1492 65.8422 34.8964 65.6501 34.6872C65.4579 34.4751 65.2278 34.3124 64.9599 34.1991C64.6949 34.0858 64.3979 34.0291 64.0688 34.0291H62.5618V33.5671H64.0688C64.4649 33.5671 64.8274 33.6354 65.1565 33.772C65.4884 33.9056 65.7753 34.1003 66.017 34.356C66.2616 34.6088 66.4494 34.9124 66.5804 35.2669C66.7144 35.6213 66.7814 36.0165 66.7814 36.4523V37.032C66.7814 37.4678 66.7144 37.8629 66.5804 38.2174C66.4494 38.5719 66.2616 38.8755 66.017 39.1283C65.7724 39.3811 65.4826 39.5757 65.1477 39.7123C64.8128 39.846 64.4401 39.9128 64.0295 39.9128ZM62.8283 33.5671V39.9128H62.291V33.5671H62.8283Z" fill="#DFDFDF"/>
<path d="M56.6434 33.9463L54.4419 39.9128H53.8828L56.2852 33.5671H56.674L56.6434 33.9463ZM58.644 39.9128L56.4381 33.9463L56.4076 33.5671H56.7963L59.2031 39.9128H58.644ZM58.2509 37.6726V38.1346H54.8744V37.6726H58.2509Z" fill="#DFDFDF"/>
<path d="M52.7677 33.5671V39.9128H52.2305V33.5671H52.7677Z" fill="#DFDFDF"/>
<path d="M50.5065 33.5671V39.9128H49.9648L46.3088 34.4911V39.9128H45.7715V33.5671H46.3088L49.9736 38.9888V33.5671H50.5065Z" fill="#DFDFDF"/>
<path d="M43.7442 33.5671H44.2815V37.8644C44.2815 38.3409 44.181 38.7375 43.9801 39.0542C43.7792 39.3709 43.5083 39.6077 43.1676 39.7646C42.8298 39.9215 42.4556 39.9999 42.045 39.9999C41.6228 39.9999 41.2428 39.9215 40.905 39.7646C40.5672 39.6077 40.2993 39.3709 40.1013 39.0542C39.9061 38.7375 39.8086 38.3409 39.8086 37.8644V33.5671H40.3415V37.8644C40.3415 38.2334 40.4143 38.5428 40.5599 38.7927C40.7055 39.0426 40.9064 39.23 41.1627 39.3549C41.419 39.4799 41.7131 39.5423 42.045 39.5423C42.3741 39.5423 42.6668 39.4799 42.923 39.3549C43.1793 39.23 43.3802 39.0426 43.5258 38.7927C43.6714 38.5428 43.7442 38.2334 43.7442 37.8644V33.5671Z" fill="#DFDFDF"/>
<path d="M35.801 39.9128H34.3595L34.3683 39.4552H35.801C36.2582 39.4552 36.6513 39.3535 36.9804 39.1501C37.3123 38.9438 37.5686 38.6591 37.7491 38.2959C37.9297 37.9327 38.02 37.5114 38.02 37.032V36.4392C38.02 36.0731 37.9675 35.7419 37.8627 35.4456C37.7608 35.1492 37.6137 34.8964 37.4215 34.6872C37.2293 34.4751 36.9993 34.3124 36.7314 34.1991C36.4664 34.0858 36.1694 34.0291 35.8403 34.0291H34.3333V33.5671H35.8403C36.2363 33.5671 36.5989 33.6354 36.9279 33.772C37.2599 33.9056 37.5468 34.1003 37.7885 34.356C38.0331 34.6088 38.2209 34.9124 38.3519 35.2669C38.4859 35.6213 38.5529 36.0165 38.5529 36.4523V37.032C38.5529 37.4678 38.4859 37.8629 38.3519 38.2174C38.2209 38.5719 38.0331 38.8755 37.7885 39.1283C37.5438 39.3811 37.2541 39.5757 36.9192 39.7123C36.5843 39.846 36.2116 39.9128 35.801 39.9128ZM34.5998 33.5671V39.9128H34.0625V33.5671H34.5998Z" fill="#DFDFDF"/>
<path d="M29.8692 33.5671H30.4065V37.8644C30.4065 38.3409 30.306 38.7375 30.1051 39.0542C29.9042 39.3709 29.6333 39.6077 29.2926 39.7646C28.9548 39.9215 28.5806 39.9999 28.17 39.9999C27.7478 39.9999 27.3678 39.9215 27.03 39.7646C26.6922 39.6077 26.4243 39.3709 26.2263 39.0542C26.0311 38.7375 25.9336 38.3409 25.9336 37.8644V33.5671H26.4665V37.8644C26.4665 38.2334 26.5393 38.5428 26.6849 38.7927C26.8305 39.0426 27.0314 39.23 27.2877 39.3549C27.544 39.4799 27.8381 39.5423 28.17 39.5423C28.4991 39.5423 28.7918 39.4799 29.048 39.3549C29.3043 39.23 29.5052 39.0426 29.6508 38.7927C29.7964 38.5428 29.8692 38.2334 29.8692 37.8644V33.5671Z" fill="#DFDFDF"/>
<path d="M22.8371 33.5671V39.9128H22.3042V33.5671H22.8371ZM25.0168 33.5671V34.0291H20.1289V33.5671H25.0168Z" fill="#DFDFDF"/>
<path d="M17.7899 33.9463L15.5884 39.9128H15.0293L17.4317 33.5671H17.8205L17.7899 33.9463ZM19.7905 39.9128L17.5846 33.9463L17.554 33.5671H17.9428L20.3496 39.9128H19.7905ZM19.3974 37.6726V38.1346H16.0208V37.6726H19.3974Z" fill="#DFDFDF"/>
<path d="M14.0186 38.3523C14.0186 38.178 13.9895 38.0225 13.9313 37.886C13.873 37.7494 13.7769 37.6274 13.643 37.5199C13.5119 37.4094 13.3343 37.3078 13.1101 37.2148C12.8887 37.1189 12.6121 37.0245 12.2801 36.9315C11.9627 36.8414 11.6759 36.7426 11.4196 36.6351C11.1634 36.5276 10.9435 36.4041 10.76 36.2647C10.5795 36.1252 10.4412 35.9625 10.3451 35.7765C10.249 35.5877 10.2009 35.3683 10.2009 35.1184C10.2009 34.8744 10.2533 34.6521 10.3582 34.4516C10.463 34.2512 10.6101 34.0783 10.7994 33.933C10.9915 33.7877 11.2172 33.6759 11.4764 33.5974C11.7385 33.519 12.0253 33.4797 12.3369 33.4797C12.7825 33.4797 13.1668 33.564 13.4901 33.7325C13.8162 33.901 14.0681 34.1291 14.2458 34.4168C14.4263 34.7015 14.5166 35.0211 14.5166 35.3756H13.9793C13.9793 35.0996 13.9138 34.854 13.7827 34.639C13.6546 34.4211 13.4682 34.2512 13.2236 34.1291C12.9819 34.0042 12.6864 33.9417 12.3369 33.9417C11.9875 33.9417 11.6934 33.9955 11.4546 34.103C11.2187 34.2076 11.0396 34.3485 10.9173 34.5257C10.7979 34.7001 10.7382 34.8947 10.7382 35.1097C10.7382 35.2608 10.7673 35.4003 10.8256 35.5281C10.8838 35.6531 10.9784 35.7707 11.1095 35.8811C11.2434 35.9886 11.4196 36.0903 11.638 36.1862C11.8564 36.2792 12.1258 36.3678 12.4461 36.4521C12.7839 36.5451 13.0838 36.6482 13.3459 36.7615C13.608 36.8748 13.8293 37.0056 14.0099 37.1538C14.1904 37.299 14.3273 37.469 14.4205 37.6637C14.5137 37.8583 14.5603 38.085 14.5603 38.3436C14.5603 38.6022 14.5049 38.8346 14.3943 39.0409C14.2865 39.2443 14.1336 39.4172 13.9356 39.5595C13.7405 39.7019 13.509 39.8109 13.2411 39.8864C12.9761 39.9619 12.6864 39.9997 12.3719 39.9997C12.0894 39.9997 11.8084 39.9634 11.5288 39.8908C11.2493 39.8181 10.993 39.7063 10.76 39.5552C10.53 39.4012 10.3451 39.2036 10.2053 38.9624C10.0684 38.7213 10 38.4336 10 38.0995H10.5329C10.5329 38.3668 10.5868 38.592 10.6945 38.775C10.8023 38.9581 10.945 39.1063 11.1226 39.2196C11.3031 39.3329 11.5012 39.4157 11.7166 39.468C11.935 39.5174 12.1535 39.5421 12.3719 39.5421C12.7067 39.5421 12.9965 39.4927 13.2411 39.3939C13.4886 39.2951 13.6794 39.1571 13.8133 38.9799C13.9502 38.7997 14.0186 38.5905 14.0186 38.3523Z" fill="#DFDFDF"/>
</svg>
